<?xml version="1.0" encoding="UTF-8"?><svg id="Layer_2" xmlns="http://www.w3.org/2000/svg" viewBox="0 0 346 355.95"><defs><style>.cls-1{fill:none;stroke:#393f4c;stroke-miterlimit:10;}.cls-2{fill:#bcbec0;font-size:9px;}.cls-2,.cls-3{font-family:MyriadPro-Regular, 'Myriad Pro';}.cls-4{fill:#1d2126;}.cls-5{fill:#5c5c5c;}.cls-6{letter-spacing:0em;}.cls-3{fill:#fff;font-size:12px;}.cls-7{letter-spacing:-.01em;}.cls-8{letter-spacing:-.05em;}.cls-9{letter-spacing:0em;}.cls-10{letter-spacing:0em;}.cls-11{letter-spacing:0em;}.cls-12{letter-spacing:0em;}.cls-13{letter-spacing:0em;}.cls-14{letter-spacing:0em;}.cls-15{letter-spacing:-.01em;}.cls-16{letter-spacing:0em;}.cls-17{letter-spacing:0em;}.cls-18{letter-spacing:0em;}.cls-19{letter-spacing:.03em;}.cls-20{letter-spacing:.01em;}</style></defs><g id="Layer_1-2"><rect class="cls-4" x=".5" y=".5" width="345" height="354.95" rx="4.5" ry="4.5"/><path class="cls-5" d="M341,1c2.21,0,4,1.79,4,4v345.95c0,2.21-1.79,4-4,4H5c-2.21,0-4-1.79-4-4V5C1,2.79,2.79,1,5,1h336M341,0H5C2.24,0,0,2.24,0,5v345.95c0,2.76,2.24,5,5,5h336c2.76,0,5-2.24,5-5V5c0-2.76-2.24-5-5-5h0Z"/></g><g id="Layer_2-2"><text class="cls-3" transform="translate(12.94 20.26)"><tspan class="cls-8" x="0" y="0">T</tspan><tspan class="cls-11" x="5.42" y="0">r</tspan><tspan class="cls-6" x="9.29" y="0">aditional log</tspan><tspan class="cls-10" x="71.96" y="0">g</tspan><tspan class="cls-6" x="78.6" y="0">ing</tspan></text><text class="cls-3" transform="translate(12.92 95.12)"><tspan class="cls-15" x="0" y="0">C</tspan><tspan x="6.83" y="0">o</tspan><tspan class="cls-12" x="13.42" y="0">n</tspan><tspan class="cls-10" x="20.03" y="0">t</tspan><tspan class="cls-18" x="23.93" y="0">e</tspan><tspan class="cls-20" x="29.9" y="0">x</tspan><tspan class="cls-6" x="35.62" y="0">t </tspan><tspan class="cls-17" x="42.13" y="0">a</tspan><tspan class="cls-14" x="47.82" y="0">w</tspan><tspan class="cls-6" x="56.6" y="0">a</tspan><tspan class="cls-16" x="62.39" y="0">r</tspan><tspan x="66.19" y="0">e/stru</tspan><tspan class="cls-20" x="95.58" y="0">c</tspan><tspan class="cls-6" x="101.11" y="0">tu</tspan><tspan class="cls-16" x="111.69" y="0">r</tspan><tspan x="115.5" y="0">ed log</tspan><tspan class="cls-9" x="146.95" y="0">g</tspan><tspan x="153.59" y="0">ing</tspan></text><rect class="cls-1" x="28.99" y="36.62" width="64.07" height="19.16" rx="9" ry="9"/><text class="cls-2" transform="translate(42.12 48.64)"><tspan class="cls-7" x="0" y="0">L</tspan><tspan x="4.12" y="0">og E</tspan><tspan class="cls-13" x="20.43" y="0">n</tspan><tspan x="25.39" y="0">t</tspan><tspan class="cls-19" x="28.37" y="0">r</tspan><tspan x="31.54" y="0">y</tspan></text><rect class="cls-1" x="99.95" y="36.62" width="64.07" height="19.16" rx="9" ry="9"/><text class="cls-2" transform="translate(113.09 48.64)"><tspan class="cls-7" x="0" y="0">L</tspan><tspan x="4.12" y="0">og E</tspan><tspan class="cls-13" x="20.43" y="0">n</tspan><tspan x="25.39" y="0">t</tspan><tspan class="cls-19" x="28.37" y="0">r</tspan><tspan x="31.54" y="0">y</tspan></text><rect class="cls-1" x="171.25" y="36.62" width="64.07" height="19.16" rx="9" ry="9"/><text class="cls-2" transform="translate(184.39 48.64)"><tspan class="cls-7" x="0" y="0">L</tspan><tspan x="4.12" y="0">og E</tspan><tspan class="cls-13" x="20.43" y="0">n</tspan><tspan x="25.39" y="0">t</tspan><tspan class="cls-19" x="28.37" y="0">r</tspan><tspan x="31.54" y="0">y</tspan></text><rect class="cls-1" x="241.86" y="36.62" width="64.07" height="19.16" rx="9" ry="9"/><text class="cls-2" transform="translate(255 48.64)"><tspan class="cls-7" x="0" y="0">L</tspan><tspan x="4.12" y="0">og E</tspan><tspan class="cls-13" x="20.43" y="0">n</tspan><tspan x="25.39" y="0">t</tspan><tspan class="cls-19" x="28.37" y="0">r</tspan><tspan x="31.54" y="0">y</tspan></text><rect class="cls-1" x="26.23" y="114.14" width="64.07" height="19.16" rx="9" ry="9"/><text class="cls-2" transform="translate(39.37 126.16)"><tspan class="cls-7" x="0" y="0">L</tspan><tspan x="4.12" y="0">og E</tspan><tspan class="cls-13" x="20.43" y="0">n</tspan><tspan x="25.39" y="0">t</tspan><tspan class="cls-19" x="28.37" y="0">r</tspan><tspan x="31.54" y="0">y</tspan></text><rect class="cls-1" x="74.85" y="145.55" width="64.07" height="19.16" rx="9" ry="9"/><text class="cls-2" transform="translate(87.99 157.58)"><tspan class="cls-7" x="0" y="0">L</tspan><tspan x="4.12" y="0">og E</tspan><tspan class="cls-13" x="20.43" y="0">n</tspan><tspan x="25.39" y="0">t</tspan><tspan class="cls-19" x="28.37" y="0">r</tspan><tspan x="31.54" y="0">y</tspan></text><rect class="cls-1" x="77.83" y="175.48" width="64.07" height="19.16" rx="9" ry="9"/><text class="cls-2" transform="translate(90.97 187.5)"><tspan class="cls-7" x="0" y="0">L</tspan><tspan x="4.12" y="0">og E</tspan><tspan class="cls-13" x="20.43" y="0">n</tspan><tspan x="25.39" y="0">t</tspan><tspan class="cls-19" x="28.37" y="0">r</tspan><tspan x="31.54" y="0">y</tspan></text><rect class="cls-1" x="28.99" y="208.22" width="64.07" height="19.16" rx="9" ry="9"/><text class="cls-2" transform="translate(42.12 220.24)"><tspan class="cls-7" x="0" y="0">L</tspan><tspan x="4.12" y="0">og E</tspan><tspan class="cls-13" x="20.43" y="0">n</tspan><tspan x="25.39" y="0">t</tspan><tspan class="cls-19" x="28.37" y="0">r</tspan><tspan x="31.54" y="0">y</tspan></text><rect class="cls-1" x="77.83" y="236.83" width="64.07" height="19.16" rx="9" ry="9"/><text class="cls-2" transform="translate(90.97 248.85)"><tspan class="cls-7" x="0" y="0">L</tspan><tspan x="4.12" y="0">og E</tspan><tspan class="cls-13" x="20.43" y="0">n</tspan><tspan x="25.39" y="0">t</tspan><tspan class="cls-19" x="28.37" y="0">r</tspan><tspan x="31.54" y="0">y</tspan></text><rect class="cls-1" x="77.83" y="265.43" width="64.07" height="19.16" rx="9" ry="9"/><text class="cls-2" transform="translate(90.97 277.46)"><tspan class="cls-7" x="0" y="0">L</tspan><tspan x="4.12" y="0">og E</tspan><tspan class="cls-13" x="20.43" y="0">n</tspan><tspan x="25.39" y="0">t</tspan><tspan class="cls-19" x="28.37" y="0">r</tspan><tspan x="31.54" y="0">y</tspan></text><rect class="cls-1" x="77.83" y="294.04" width="64.07" height="19.16" rx="9" ry="9"/><text class="cls-2" transform="translate(90.97 306.06)"><tspan class="cls-7" x="0" y="0">L</tspan><tspan x="4.12" y="0">og E</tspan><tspan class="cls-13" x="20.43" y="0">n</tspan><tspan x="25.39" y="0">t</tspan><tspan class="cls-19" x="28.37" y="0">r</tspan><tspan x="31.54" y="0">y</tspan></text><rect class="cls-1" x="122.4" y="322.65" width="64.07" height="19.16" rx="9" ry="9"/><text class="cls-2" transform="translate(135.54 334.67)"><tspan class="cls-7" x="0" y="0">L</tspan><tspan x="4.12" y="0">og E</tspan><tspan class="cls-13" x="20.43" y="0">n</tspan><tspan x="25.39" y="0">t</tspan><tspan class="cls-19" x="28.37" y="0">r</tspan><tspan x="31.54" y="0">y</tspan></text></g></svg>