<?xml version="1.0" standalone="no"?>
<!DOCTYPE svg PUBLIC "-//W3C//DTD SVG 20010904//EN"
 "http://www.w3.org/TR/2001/REC-SVG-20010904/DTD/svg10.dtd">
<svg version="1.0" xmlns="http://www.w3.org/2000/svg"
 width="1910.000000pt" height="1000.000000pt" viewBox="0 0 1910.000000 1000.000000"
 preserveAspectRatio="xMidYMid meet">

<g transform="translate(0.000000,1000.000000) scale(0.100000,-0.100000)"
fill="#000000" stroke="none">
<path d="M5530 5010 l0 -2850 4013 2 4012 3 3 2848 2 2847 -4015 0 -4015 0 0
-2850z m2110 2518 c52 -8 115 -22 140 -31 25 -8 60 -18 78 -22 18 -4 45 -13
60 -21 15 -8 33 -14 40 -14 8 0 46 -15 85 -34 40 -18 80 -36 90 -39 9 -4 17
-11 17 -17 0 -5 7 -10 17 -10 9 0 31 -11 49 -25 18 -14 37 -25 43 -25 5 0 14
-6 18 -13 4 -8 15 -17 23 -21 29 -13 57 -31 72 -46 9 -8 39 -35 69 -60 44 -38
135 -129 272 -272 15 -16 27 -31 27 -34 0 -3 18 -29 40 -59 22 -30 40 -59 40
-65 0 -5 4 -10 9 -10 5 0 17 -18 27 -40 10 -22 21 -40 26 -40 4 0 8 -9 8 -19
0 -11 4 -22 9 -26 5 -3 23 -36 41 -73 17 -37 37 -80 45 -95 8 -16 15 -35 15
-43 0 -8 4 -14 10 -14 5 0 12 -16 16 -35 3 -19 10 -35 14 -35 4 0 10 -24 13
-52 4 -29 11 -54 17 -56 5 -2 10 -16 10 -30 0 -15 7 -36 15 -46 8 -11 15 -32
15 -47 0 -15 4 -30 9 -33 5 -3 12 -26 15 -51 4 -24 11 -47 17 -50 5 -4 9 -19
9 -36 0 -26 3 -29 31 -29 17 0 39 5 50 11 29 15 456 16 472 0 6 -6 26 -11 44
-11 27 0 35 5 43 26 6 14 10 36 10 49 0 12 7 36 15 51 8 16 15 38 15 49 0 11
11 52 25 90 13 39 25 78 25 88 0 9 4 17 10 17 5 0 12 17 15 38 4 20 15 55 24
77 41 90 116 240 124 243 4 2 7 12 7 23 0 10 4 19 9 19 5 0 12 11 15 25 4 14
11 25 16 25 6 0 10 6 10 14 0 8 6 21 13 28 17 20 37 50 43 70 3 9 12 19 20 22
8 3 14 12 14 19 0 18 319 339 360 364 17 9 30 21 30 25 0 4 7 8 15 8 8 0 15 5
15 10 0 6 10 15 23 21 28 13 55 29 92 55 17 12 40 25 53 28 12 4 22 12 22 17
0 5 9 9 20 9 11 0 20 4 20 9 0 5 14 12 30 16 17 4 30 11 30 16 0 5 7 9 15 9 8
0 23 4 33 9 25 12 82 32 127 43 22 6 49 14 60 18 117 46 556 78 685 49 30 -6
80 -15 110 -20 64 -9 109 -18 130 -26 20 -8 20 -8 54 -18 16 -4 41 -14 55 -21
14 -8 31 -14 37 -14 6 0 33 -11 60 -25 27 -14 55 -25 62 -25 6 0 12 -4 12 -10
0 -5 8 -10 19 -10 10 0 24 -7 31 -15 7 -8 18 -15 24 -15 6 0 23 -11 38 -25 15
-14 31 -25 36 -25 6 0 12 -7 16 -15 3 -8 12 -15 21 -15 18 0 287 -268 281
-279 -3 -4 4 -14 15 -21 10 -8 19 -20 19 -27 0 -7 4 -13 9 -13 5 0 20 -17 32
-37 13 -21 25 -40 28 -43 4 -3 15 -23 26 -45 11 -22 29 -56 41 -75 12 -20 25
-50 28 -68 4 -17 12 -34 17 -37 5 -4 9 -16 9 -28 0 -12 7 -31 15 -41 8 -11 15
-32 15 -47 0 -15 4 -30 9 -34 5 -3 12 -31 16 -63 3 -31 10 -65 15 -74 13 -24
13 -395 0 -403 -5 -3 -10 -30 -10 -58 0 -29 -7 -65 -15 -81 -8 -15 -15 -45
-15 -65 0 -21 -7 -46 -15 -57 -8 -10 -15 -29 -15 -41 0 -12 -4 -24 -9 -28 -6
-3 -13 -26 -17 -50 -3 -25 -10 -48 -15 -51 -5 -3 -9 -13 -9 -23 0 -10 -7 -24
-15 -31 -8 -7 -15 -21 -15 -31 0 -11 -4 -19 -9 -19 -5 0 -13 -10 -17 -22 -4
-13 -23 -48 -42 -78 -20 -30 -47 -75 -60 -100 -13 -25 -30 -50 -38 -56 -8 -6
-14 -15 -14 -20 0 -5 -17 -27 -38 -49 -20 -22 -53 -61 -72 -85 -19 -25 -57
-65 -84 -90 -27 -25 -61 -56 -75 -69 -48 -44 -108 -91 -116 -91 -4 0 -27 -16
-51 -35 -23 -19 -45 -35 -49 -35 -3 0 -21 -11 -39 -25 -18 -14 -40 -25 -48
-25 -9 0 -18 -6 -21 -14 -3 -7 -22 -16 -41 -20 -20 -4 -36 -10 -36 -14 0 -9
-44 -28 -85 -38 -16 -4 -34 -10 -40 -14 -5 -4 -25 -11 -42 -15 -18 -3 -33 -11
-33 -16 0 -5 -13 -9 -29 -9 -16 0 -45 -7 -64 -15 -20 -8 -49 -15 -65 -15 -16
0 -32 -3 -36 -7 -18 -18 -219 -45 -416 -56 -30 -2 -68 -4 -84 -5 l-29 -2 8
-52 c23 -155 -6 -534 -46 -610 -5 -10 -9 -28 -9 -40 -1 -13 -7 -34 -15 -48 -8
-14 -15 -36 -15 -50 0 -14 -7 -34 -15 -44 -8 -11 -15 -30 -15 -43 0 -13 -4
-23 -10 -23 -5 0 -10 -6 -10 -14 0 -7 -7 -19 -15 -26 -8 -7 -15 -20 -15 -30 0
-9 -11 -37 -25 -61 -14 -24 -28 -52 -31 -61 -4 -10 -10 -18 -14 -18 -4 0 -10
-8 -14 -17 -6 -21 -25 -50 -46 -73 -8 -9 -24 -29 -35 -44 -11 -16 -26 -34 -32
-41 -7 -8 -13 -17 -13 -21 0 -8 -247 -254 -256 -254 -3 0 -15 -10 -27 -23 -12
-13 -37 -32 -54 -42 -18 -11 -33 -22 -33 -26 0 -4 -11 -10 -25 -13 -14 -4 -25
-11 -25 -16 0 -6 -7 -10 -15 -10 -8 0 -15 -4 -15 -10 0 -5 -6 -10 -14 -10 -8
0 -21 -6 -28 -12 -8 -7 -27 -20 -43 -29 -17 -8 -39 -20 -50 -27 -41 -23 -89
-42 -104 -42 -9 0 -25 -7 -35 -15 -11 -8 -30 -15 -42 -15 -13 0 -26 -4 -29
-10 -3 -5 -28 -12 -55 -16 -28 -4 -50 -10 -50 -15 0 -5 -11 -9 -24 -9 -14 0
-37 -5 -53 -11 -65 -26 -507 -50 -548 -30 -11 5 -57 12 -103 14 -45 2 -88 9
-94 15 -7 7 -29 12 -49 12 -21 0 -41 5 -44 10 -3 6 -16 10 -28 10 -12 0 -35 7
-51 15 -15 8 -38 15 -51 15 -12 0 -28 7 -35 15 -7 8 -22 15 -35 15 -12 0 -42
11 -66 24 -149 79 -187 103 -264 158 -47 34 -85 66 -85 70 0 4 -6 8 -13 8 -13
0 -230 210 -255 246 -7 11 -15 27 -18 37 -4 9 -13 17 -20 17 -8 0 -14 6 -14
13 0 8 -11 24 -25 37 -14 13 -25 27 -25 32 0 4 -15 29 -34 55 -37 54 -146 274
-146 297 0 8 -4 17 -9 20 -5 4 -12 24 -16 46 -4 22 -10 42 -15 45 -4 3 -11 28
-15 55 -4 27 -11 52 -16 56 -5 3 -9 22 -9 42 0 20 -7 87 -15 147 -16 118 -18
277 -6 363 4 29 4 55 -1 58 -5 4 -44 8 -86 11 -257 16 -420 37 -438 56 -4 4
-21 7 -38 7 -17 1 -42 7 -56 15 -14 8 -38 15 -55 15 -16 0 -39 7 -49 15 -11 8
-27 15 -37 15 -9 0 -30 7 -45 15 -16 8 -39 15 -51 15 -12 0 -23 3 -25 8 -4 10
-63 42 -77 42 -6 0 -40 18 -75 40 -35 22 -68 40 -74 40 -6 0 -12 3 -14 8 -4
10 -70 57 -90 65 -10 3 -18 11 -18 17 0 5 -4 10 -9 10 -18 0 -251 223 -251
240 0 5 -11 17 -25 26 -14 9 -25 23 -25 30 0 8 -6 17 -14 20 -7 3 -22 22 -32
42 -11 20 -27 45 -37 54 -11 9 -16 22 -12 27 3 6 2 11 -2 11 -5 0 -17 15 -27
33 -11 17 -27 41 -36 52 -10 11 -21 31 -25 45 -4 13 -14 30 -21 38 -8 7 -14
21 -14 31 0 10 -9 26 -20 36 -11 10 -20 27 -20 38 0 10 -6 33 -13 50 -24 57
-39 101 -44 132 -3 17 -9 35 -13 40 -5 6 -11 31 -15 58 -4 26 -11 47 -15 47
-10 0 -24 165 -24 305 -1 126 10 266 23 300 5 11 16 47 26 80 9 33 23 72 31
87 8 14 14 36 14 47 0 12 4 21 10 21 5 0 12 15 16 34 3 19 15 42 25 52 10 9
19 22 19 27 0 16 90 157 101 157 5 0 9 6 9 13 0 8 11 24 25 37 14 13 25 28 25
33 0 9 56 71 150 165 50 50 144 122 159 122 5 0 11 4 13 8 2 4 20 18 41 31 20
12 37 27 37 32 0 5 9 9 21 9 11 0 27 7 35 15 9 8 24 15 35 15 10 0 19 3 19 8
0 8 43 28 84 38 16 4 41 13 55 20 14 8 33 14 41 14 8 0 38 8 66 19 29 10 85
22 126 25 41 4 80 11 88 16 23 14 414 5 520 -12z"/>
<path d="M8460 5450 c-19 -11 -42 -19 -51 -20 -36 -1 -39 -23 -12 -100 25 -74
39 -100 52 -100 4 0 23 14 41 30 19 17 59 47 89 68 31 20 58 40 59 45 2 4 10
7 17 7 7 0 15 7 19 15 3 8 14 15 25 15 10 0 21 7 25 15 3 8 15 15 27 15 12 0
19 5 17 13 -3 9 -42 12 -139 14 -113 1 -139 -2 -169 -17z"/>
<path d="M10190 5455 c0 -8 6 -15 14 -15 8 0 16 -7 20 -15 3 -8 13 -15 22 -15
9 0 33 -14 53 -30 56 -48 60 -50 70 -50 5 0 11 -3 13 -7 2 -5 23 -21 47 -38
24 -16 45 -35 48 -42 10 -24 31 -13 52 27 12 22 21 51 21 65 0 13 5 27 10 30
6 3 10 19 10 36 0 22 -5 29 -20 29 -11 0 -35 9 -55 20 -31 17 -54 20 -170 20
-113 0 -135 -2 -135 -15z"/>
<path d="M8925 5271 c-16 -9 -31 -19 -33 -23 -2 -5 -7 -8 -12 -8 -12 0 -167
-106 -207 -140 -17 -16 -41 -31 -52 -35 -43 -13 -27 -35 153 -202 45 -43 76
-55 76 -29 0 7 7 19 15 26 8 7 15 21 15 31 0 11 4 19 8 19 8 0 20 27 52 110 7
19 17 67 21 105 12 93 12 95 2 131 -8 30 -8 30 -38 15z"/>
<path d="M9985 5241 c-6 -38 15 -180 34 -226 23 -54 77 -160 83 -163 5 -2 8
-10 8 -18 0 -24 21 -16 64 26 23 22 74 71 114 109 39 38 72 72 72 75 0 3 -15
13 -32 22 -18 9 -43 27 -55 40 -12 13 -25 24 -28 24 -4 0 -21 11 -39 25 -18
14 -38 25 -43 25 -6 0 -13 7 -17 15 -3 8 -12 15 -19 15 -8 0 -20 6 -26 14 -10
12 -92 56 -105 56 -2 0 -7 -18 -11 -39z"/>
<path d="M8163 5237 c-12 -18 -28 -48 -34 -67 -7 -19 -22 -51 -33 -70 -18 -31
-20 -52 -20 -191 -1 -122 2 -160 14 -174 13 -16 16 -14 31 21 10 22 18 51 18
67 1 15 5 27 10 27 5 0 12 12 16 27 3 15 10 30 13 33 4 3 17 25 30 50 13 25
33 62 44 82 20 35 20 38 4 72 -9 19 -21 38 -26 41 -6 3 -10 14 -11 23 0 9 -8
34 -17 54 l-17 38 -22 -33z"/>
<path d="M10750 5246 c0 -24 -45 -121 -70 -151 -10 -12 -10 -19 2 -33 8 -9 18
-24 21 -32 4 -8 20 -37 37 -65 16 -27 33 -57 36 -65 3 -8 17 -39 30 -68 13
-29 24 -62 24 -73 0 -11 5 -30 12 -42 11 -21 11 -21 19 -2 4 11 8 34 8 51 1
16 6 35 12 41 22 22 -8 323 -33 323 -4 0 -8 11 -8 25 0 14 -4 25 -10 25 -5 0
-10 5 -10 12 0 19 -44 78 -57 78 -7 0 -13 -11 -13 -24z"/>
<path d="M8432 4878 c-7 -7 -12 -18 -12 -25 0 -7 -4 -13 -9 -13 -5 0 -11 -8
-15 -17 -3 -10 -9 -25 -14 -33 -27 -46 -58 -133 -71 -203 l-8 -47 63 0 c36 0
72 4 82 9 24 12 82 32 112 39 13 3 31 11 38 19 7 7 20 13 28 13 8 0 14 4 14 9
0 5 9 11 20 14 11 3 20 12 20 20 0 15 -61 67 -79 67 -6 0 -11 7 -11 15 0 8 -4
15 -9 15 -9 0 -71 57 -71 65 0 5 -58 65 -63 65 -1 0 -8 -5 -15 -12z"/>
<path d="M10490 4883 c0 -11 -56 -68 -120 -123 -86 -75 -100 -89 -100 -100 0
-5 7 -10 15 -10 8 0 15 -4 15 -9 0 -5 16 -15 35 -21 19 -6 35 -15 35 -18 0 -4
28 -16 63 -26 34 -11 66 -23 71 -28 6 -4 41 -8 79 -8 67 0 69 1 62 23 -4 12
-10 40 -15 62 -9 47 -51 149 -80 197 -11 18 -23 41 -26 51 -6 16 -34 25 -34
10z"/>
<path d="M7998 3958 c2 -51 7 -102 11 -113 13 -32 29 -87 36 -125 7 -41 11
-50 94 -230 21 -44 41 -80 51 -90 10 -10 31 -45 36 -62 4 -10 13 -18 20 -18 8
0 14 -7 14 -15 0 -8 3 -15 8 -15 4 0 18 -17 32 -38 24 -36 154 -172 165 -172
5 0 58 -46 101 -87 7 -7 18 -13 24 -13 6 0 13 -6 16 -14 3 -8 13 -17 22 -20 9
-3 31 -15 47 -25 57 -37 208 -111 226 -111 11 0 19 -4 19 -8 0 -5 28 -16 63
-26 34 -10 71 -21 82 -26 11 -5 47 -11 79 -15 33 -3 66 -11 74 -17 9 -8 86
-12 250 -12 195 1 245 4 285 17 26 9 62 17 79 17 31 0 87 14 119 31 9 4 33 11
53 14 20 4 36 11 36 16 0 5 7 9 16 9 16 0 85 29 94 40 3 3 29 17 58 30 28 14
52 28 52 32 0 5 9 8 20 8 11 0 23 7 26 15 4 8 10 15 15 15 12 0 111 73 163
120 73 65 176 175 176 188 0 6 4 12 8 12 5 0 15 11 22 25 7 14 19 25 27 25 7
0 13 5 13 12 0 12 59 109 71 118 4 3 11 18 14 33 4 15 11 27 16 27 5 0 9 11 9
25 0 14 4 25 10 25 5 0 12 16 16 35 3 19 10 38 15 41 5 3 9 15 9 27 0 12 7 31
15 41 8 11 15 38 15 61 0 23 5 46 11 52 6 6 15 46 19 89 5 44 12 94 16 112 l6
33 -133 -6 c-74 -3 -145 -10 -159 -15 -14 -5 -101 -11 -195 -14 -93 -3 -226
-10 -295 -15 -167 -13 -1237 -13 -1420 0 -80 6 -224 14 -320 18 -96 4 -182 10
-190 13 -8 4 -71 9 -140 12 l-125 6 3 -92z"/>
<path d="M4373 900 c37 -90 80 -180 83 -177 5 4 -80 194 -91 205 -4 4 0 -9 8
-28z"/>
<path d="M5515 810 c-44 -18 -70 -59 -70 -112 0 -43 4 -53 30 -76 l30 -27 -36
-35 c-119 -113 8 -258 182 -210 106 29 133 148 48 209 -37 27 -39 30 -21 43
32 23 52 61 52 98 -1 75 -53 120 -140 119 -30 0 -64 -4 -75 -9z m135 -67 c27
-34 22 -84 -11 -119 -21 -22 -23 -22 -58 -8 -50 21 -74 48 -74 83 0 46 28 71
79 71 35 0 47 -5 64 -27z m-34 -197 c28 -13 55 -30 59 -36 13 -21 7 -71 -10
-90 -35 -39 -142 -32 -165 10 -18 33 -11 77 16 109 31 37 35 37 100 7z"/>
<path d="M5050 785 c0 -24 1 -24 97 -27 l97 -3 -67 -71 c-48 -51 -67 -79 -67
-98 0 -25 2 -26 60 -26 47 0 64 -4 80 -20 29 -29 27 -84 -6 -117 -24 -24 -30
-25 -97 -20 -40 2 -80 8 -90 12 -16 7 -18 3 -15 -21 4 -35 45 -53 123 -53 102
-1 175 59 175 144 0 72 -37 111 -124 130 l-29 6 66 67 c50 50 67 75 67 95 l0
27 -135 0 -135 0 0 -25z"/>
<path d="M4508 713 c18 -2 45 -2 60 0 15 2 0 4 -33 4 -33 0 -45 -2 -27 -4z"/>
<path d="M4623 703 c15 -2 37 -2 50 0 12 2 0 4 -28 4 -27 0 -38 -2 -22 -4z"/>
<path d="M4620 624 c-90 -78 -136 -125 -65 -66 71 59 151 131 145 131 -3 0
-39 -29 -80 -65z"/>
<path d="M4040 656 c0 -2 8 -10 18 -17 15 -13 16 -12 3 4 -13 16 -21 21 -21
13z"/>
<path d="M450 646 c0 -2 8 -10 18 -17 15 -13 16 -12 3 4 -13 16 -21 21 -21 13z"/>
<path d="M2250 646 c0 -2 8 -10 18 -17 15 -13 16 -12 3 4 -13 16 -21 21 -21
13z"/>
<path d="M3150 646 c0 -2 8 -10 18 -17 15 -13 16 -12 3 4 -13 16 -21 21 -21
13z"/>
<path d="M1009 613 l-24 -28 28 24 c25 23 32 31 24 31 -2 0 -14 -12 -28 -27z"/>
<path d="M1914 618 l-19 -23 23 19 c21 18 27 26 19 26 -2 0 -12 -10 -23 -22z"/>
<path d="M2814 618 l-19 -23 23 19 c21 18 27 26 19 26 -2 0 -12 -10 -23 -22z"/>
<path d="M3714 618 l-19 -23 23 19 c21 18 27 26 19 26 -2 0 -12 -10 -23 -22z"/>
<path d="M510 596 c0 -2 8 -10 18 -17 15 -13 16 -12 3 4 -13 16 -21 21 -21 13z"/>
<path d="M2310 596 c0 -2 8 -10 18 -17 15 -13 16 -12 3 4 -13 16 -21 21 -21
13z"/>
<path d="M1420 586 c0 -2 8 -10 18 -17 15 -13 16 -12 3 4 -13 16 -21 21 -21
13z"/>
<path d="M3220 586 c0 -2 8 -10 18 -17 15 -13 16 -12 3 4 -13 16 -21 21 -21
13z"/>
<path d="M939 553 c-13 -16 -12 -17 4 -4 16 13 21 21 13 21 -2 0 -10 -8 -17
-17z"/>
<path d="M3639 553 c-13 -16 -12 -17 4 -4 16 13 21 21 13 21 -2 0 -10 -8 -17
-17z"/>
<path d="M1824 538 l-19 -23 23 19 c21 18 27 26 19 26 -2 0 -12 -10 -23 -22z"/>
<path d="M4521 501 c-1 -12 9 -55 40 -175 6 -21 12 -36 14 -34 2 2 -9 53 -25
113 -15 61 -29 104 -29 96z"/>
<path d="M4430 354 c117 -69 138 -80 125 -66 -13 14 -202 122 -212 122 -4 0
35 -25 87 -56z"/>
</g>
</svg>
