<?xml version="1.0" encoding="UTF-8"?><svg id="Layer_2" xmlns="http://www.w3.org/2000/svg" viewBox="0 0 465.29 151.64"><defs><style>.cls-1,.cls-2{fill:#bcbec0;font-family:MyriadPro-Regular, 'Myriad Pro';font-size:10px;}.cls-3{stroke:#fff;}.cls-3,.cls-4{fill:none;stroke-miterlimit:10;}.cls-5{fill:#1d2126;}.cls-6{fill:#5c5c5c;}.cls-7{letter-spacing:0em;}.cls-8{fill:#fff;}.cls-2{glyph-orientation-vertical:0deg;text-orientation:upright;writing-mode:tb;}.cls-9{letter-spacing:0em;}.cls-10{letter-spacing:-.01em;}.cls-11{letter-spacing:0em;}.cls-12{letter-spacing:0em;}.cls-13{letter-spacing:0em;}.cls-14{letter-spacing:-.01em;}.cls-4{stroke:#2b54a5;}.cls-15{letter-spacing:0em;}</style></defs><g id="Layer_1-2"><rect class="cls-5" x=".5" y=".5" width="464.29" height="150.64" rx="4.5" ry="4.5"/><path class="cls-6" d="M460.29,1c2.21,0,4,1.79,4,4v141.64c0,2.21-1.79,4-4,4H5c-2.21,0-4-1.79-4-4V5C1,2.79,2.79,1,5,1h455.29M460.29,0H5C2.24,0,0,2.24,0,5v141.64c0,2.76,2.24,5,5,5h455.29c2.76,0,5-2.24,5-5V5c0-2.76-2.24-5-5-5h0Z"/></g><g id="Layer_2-2"><rect class="cls-5" x="8.91" y="11.28" width="101.4" height="130.14"/><path class="cls-6" d="M109.8,11.78v129.14H9.41V11.78h100.4M110.8,10.78H8.41v131.14h102.4V10.78h0Z"/><rect class="cls-5" x="118.19" y="11.28" width="101.4" height="130.14"/><path class="cls-6" d="M219.08,11.78v129.14h-100.4V11.78h100.4M220.08,10.78h-102.4v131.14h102.4V10.78h0Z"/><rect class="cls-5" x="347.83" y="40.02" width="105.59" height="55.89"/><path class="cls-6" d="M452.92,40.52v54.89h-104.59v-54.89h104.59M453.92,39.52h-106.59v56.89h106.59v-56.89h0Z"/><text class="cls-1" transform="translate(357.04 56.73)"><tspan class="cls-10" x="0" y="0">L</tspan><tspan x="4.58" y="0">og e</tspan><tspan class="cls-14" x="22.79" y="0">v</tspan><tspan x="27.5" y="0">e</tspan><tspan class="cls-13" x="32.51" y="0">n</tspan><tspan class="cls-7" x="38.02" y="0">t ag</tspan><tspan class="cls-12" x="53.86" y="0">g</tspan><tspan class="cls-14" x="59.39" y="0">r</tspan><tspan x="62.56" y="0">eg</tspan><tspan class="cls-13" x="73.16" y="0">a</tspan><tspan class="cls-11" x="77.94" y="0">t</tspan><tspan x="81.19" y="0">or</tspan></text><text class="cls-1" transform="translate(14.44 26.74)"><tspan x="0" y="0">API instan</tspan><tspan class="cls-11" x="41.48" y="0">c</tspan><tspan x="45.9" y="0">e</tspan></text><text class="cls-1" transform="translate(124.06 26.74)"><tspan class="cls-15" x="0" y="0">S</tspan><tspan class="cls-9" x="4.99" y="0">e</tspan><tspan class="cls-11" x="10" y="0">c</tspan><tspan x="14.42" y="0">ond API instan</tspan><tspan class="cls-11" x="74.7" y="0">c</tspan><tspan x="79.12" y="0">e</tspan></text><rect class="cls-4" x="255.71" y="4.79" width="36.53" height="137.13" rx="9" ry="9"/><text class="cls-2" transform="translate(273.98 26.85)"><tspan x="0" y="0">EVENT</tspan><tspan x="0" y="50" xml:space="preserve">      </tspan><tspan x="0" y="62.72">BUS</tspan></text></g><g id="Layer_3"><line class="cls-3" x1="248.54" y1="51.89" x2="57.21" y2="51.89"/><polygon class="cls-8" points="247.08 46.91 255.71 51.89 247.08 56.88 247.08 46.91"/><path class="cls-8" d="M255.71,88.02l-88.77.47,88.77-.47Z"/><polyline class="cls-3" points="248.54 88.06 166.95 88.5 255.71 88.02"/><polygon class="cls-8" points="247.05 83.08 255.71 88.02 247.1 93.06 247.05 83.08"/><line class="cls-3" x1="340.15" y1="68.11" x2="292.24" y2="68.11"/><polygon class="cls-8" points="338.69 63.12 347.33 68.11 338.69 73.1 338.69 63.12"/></g></svg>